<svg xmlns="http://www.w3.org/2000/svg" viewBox="0 0 64 64" role="img" aria-labelledby="title">
  <title id="title">Animales vivos y cortes</title>
  <rect x="1" y="1" width="62" height="62" rx="12" fill="#151515" stroke="#3a3425" stroke-width="2"/>
  <path d="M18 26c-5-1-8-5-8-10 6 0 11 2 14 7m22 3c5-1 8-5 8-10-6 0-11 2-14 7" fill="none" stroke="#C9A84C" stroke-width="2.5" stroke-linecap="round"/>
  <path d="M20 25c2-8 22-8 24 0v13c0 8-6 14-12 14s-12-6-12-14V25Z" fill="none" stroke="#C9A84C" stroke-width="3"/>
  <path d="M25 34h.1M39 34h.1M27 43c3 2 7 2 10 0" stroke="#E7E3D8" stroke-width="2.5" stroke-linecap="round"/>
</svg>
